<?xml version="1.0" standalone="no"?>
<!DOCTYPE svg PUBLIC "-//W3C//DTD SVG 20010904//EN"
 "http://www.w3.org/TR/2001/REC-SVG-20010904/DTD/svg10.dtd">
<svg version="1.0" xmlns="http://www.w3.org/2000/svg"
 width="700.000000pt" height="700.000000pt" viewBox="0 0 700.000000 700.000000"
 preserveAspectRatio="xMidYMid meet">
<metadata>
Created by potrace 1.11, written by Peter Selinger 2001-2013
</metadata>
<g transform="translate(0.000000,700.000000) scale(0.100000,-0.100000)"
fill="#000000" stroke="none">
<path d="M3131 6268 c-20 -82 -23 -272 -5 -347 51 -215 163 -353 372 -454 82
-40 84 -39 101 43 26 122 30 185 20 272 -24 189 -125 341 -304 455 -41 26
-157 83 -169 83 -1 0 -8 -24 -15 -52z"/>
<path d="M4175 6102 c-174 -97 -312 -235 -374 -376 -39 -90 -51 -154 -47 -266
4 -114 7 -132 29 -200 16 -49 19 -50 87 -18 173 79 327 241 379 399 24 74 40
218 30 270 -4 19 -9 50 -12 69 -3 19 -13 61 -24 92 l-18 57 -50 -27z"/>
<path d="M5239 5715 c-234 -99 -398 -242 -487 -427 -13 -26 -25 -55 -27 -65
-34 -151 -38 -223 -20 -356 l7 -58 32 7 c48 10 155 53 216 87 181 101 301 249
350 434 15 54 18 96 15 203 -1 74 -5 144 -8 155 -3 11 -6 26 -6 33 -1 16 -5
15 -72 -13z"/>
<path d="M2455 5425 c-249 -142 -326 -390 -214 -690 11 -30 24 -55 27 -55 11
0 111 67 161 108 83 68 157 190 177 294 9 50 6 167 -7 223 -12 57 -51 165 -59
165 -3 0 -41 -20 -85 -45z"/>
<path d="M1327 5427 c-6 -16 0 -86 14 -172 41 -246 200 -446 430 -540 74 -30
212 -62 284 -66 43 -3 50 0 48 16 -38 430 -303 721 -695 760 -29 3 -58 8 -65
10 -6 2 -13 -2 -16 -8z"/>
<path d="M4355 5301 c-152 -54 -225 -98 -313 -191 -36 -39 -132 -200 -118
-200 2 0 0 -15 -5 -32 -14 -52 -22 -129 -20 -206 l1 -43 43 6 c130 18 280 91
366 177 123 124 172 274 162 496 -1 29 -17 28 -116 -7z"/>
<path d="M3088 5315 c-2 -2 -27 -6 -57 -9 -30 -4 -93 -23 -142 -43 -100 -43
-100 -40 -17 -121 204 -203 464 -259 700 -150 80 37 80 36 -21 138 -74 75
-178 140 -263 165 -48 14 -191 28 -200 20z"/>
<path d="M3665 5230 c3 -41 8 -113 11 -160 2 -47 7 -110 9 -140 2 -30 6 -95 9
-145 11 -154 19 -222 31 -265 2 -8 7 -31 10 -50 5 -31 12 -71 30 -180 13 -71
20 -248 13 -305 -4 -33 -17 -89 -29 -125 -70 -210 -363 -800 -397 -800 -13 0
-40 34 -157 195 -85 117 -143 185 -269 308 -89 87 -188 182 -221 210 -33 29
-81 73 -106 99 -107 107 -265 386 -397 703 -32 75 -27 40 27 -182 53 -219 79
-285 156 -408 84 -135 164 -226 285 -325 62 -51 59 -48 120 -116 96 -107 112
-126 205 -251 79 -107 155 -232 155 -258 0 -3 25 -65 56 -136 62 -144 65 -178
16 -180 -129 -6 -215 0 -467 36 -138 20 -169 24 -225 29 -51 6 -128 14 -180
21 -19 2 -57 7 -85 10 -63 7 -79 9 -370 45 -132 16 -260 32 -285 35 -25 3 -81
10 -125 15 -130 16 -147 18 -215 24 -69 6 -63 4 85 -28 44 -10 87 -19 95 -21
110 -25 320 -83 379 -106 85 -32 231 -69 366 -94 50 -10 97 -19 107 -20 9 -2
38 -7 65 -11 26 -3 55 -8 63 -9 8 -2 35 -6 60 -10 251 -38 778 -267 781 -339
6 -162 -3 -549 -17 -651 -42 -325 -80 -484 -152 -635 -28 -58 -60 -114 -71
-124 -12 -11 -81 -49 -153 -85 -72 -37 -133 -72 -135 -78 -7 -21 39 -35 136
-40 80 -5 109 -2 176 17 44 12 94 25 110 27 17 3 81 15 144 28 63 13 117 22
121 20 3 -2 64 -15 135 -30 72 -14 159 -34 194 -45 83 -25 246 -22 287 5 25
16 25 17 7 30 -10 7 -54 30 -98 51 -82 39 -147 77 -177 104 -30 27 -95 182
-102 241 -4 31 -8 65 -10 75 -2 11 -7 51 -11 89 -4 39 -9 78 -11 87 -1 10 -6
107 -9 215 -4 109 -8 230 -10 268 -2 39 -7 203 -11 365 l-6 296 78 73 c101 93
252 194 329 219 33 11 94 27 135 36 41 8 109 25 150 36 74 20 236 55 295 64
244 36 341 67 720 226 170 71 254 113 415 207 47 27 127 71 178 98 50 26 91
50 89 51 -2 2 -34 -6 -72 -17 -39 -11 -88 -24 -110 -30 -91 -25 -368 -120
-420 -144 -75 -34 -409 -139 -590 -185 -183 -46 -233 -56 -380 -76 -46 -6
-139 -32 -420 -119 -145 -45 -187 -54 -292 -61 l-88 -6 -37 36 c-21 20 -38 45
-38 56 0 75 55 252 140 455 23 55 57 137 75 182 78 190 107 230 354 483 154
158 166 171 285 310 55 63 124 144 155 179 31 35 64 73 74 84 9 11 17 22 17
24 0 6 -140 -107 -190 -154 -25 -23 -55 -50 -68 -62 -13 -11 -87 -80 -165
-154 -254 -240 -272 -257 -284 -257 -9 0 -13 20 -14 68 0 37 -2 78 -5 92 -4
24 -32 160 -39 190 -2 8 -8 38 -15 65 -32 142 -200 799 -206 804 -3 3 -2 -28
1 -69z"/>
<path d="M2769 4762 c-139 -105 -227 -227 -258 -356 -23 -94 -6 -236 40 -341
12 -27 23 -52 25 -54 11 -13 142 110 201 189 129 171 151 354 67 548 -10 23
-23 42 -29 42 -5 0 -26 -13 -46 -28z"/>
<path d="M3140 4763 c-39 -6 -141 -42 -180 -62 l-34 -19 61 -60 c78 -78 181
-145 267 -173 71 -22 196 -30 266 -15 38 8 161 54 173 66 15 14 -91 128 -168
179 -97 64 -182 91 -284 90 -42 -1 -87 -4 -101 -6z"/>
<path d="M5035 4674 c-107 -24 -168 -41 -211 -60 -115 -51 -213 -130 -292
-236 -37 -48 -92 -140 -92 -152 0 -8 121 -44 190 -57 354 -66 659 81 838 402
l31 57 -47 12 c-26 7 -65 17 -87 21 -44 10 -298 20 -330 13z"/>
<path d="M1512 4565 c-82 -21 -231 -83 -232 -96 0 -4 33 -40 74 -80 186 -185
409 -252 641 -194 63 16 205 79 205 91 0 20 -87 116 -150 166 -158 125 -338
163 -538 113z"/>
<path d="M5934 4371 c-237 -160 -347 -336 -348 -556 0 -49 3 -108 7 -130 10
-55 47 -165 55 -165 15 1 100 47 155 84 149 99 251 248 282 411 17 90 -4 270
-42 368 l-19 49 -90 -61z"/>
<path d="M3141 4273 c-209 -188 -256 -415 -139 -663 17 -36 39 -75 49 -88 l18
-24 64 64 c81 81 111 122 152 211 64 141 66 287 4 431 -23 55 -68 126 -79 126
-3 0 -35 -26 -69 -57z"/>
<path d="M6838 4265 c-2 -2 -30 -6 -62 -10 -145 -16 -351 -108 -448 -199 -120
-113 -201 -268 -223 -424 l-7 -52 69 0 c338 0 593 140 720 396 39 76 61 143
79 234 3 14 7 33 10 43 5 16 -1 18 -65 16 -39 -1 -72 -3 -73 -4z"/>
<path d="M5208 4030 c-117 -118 -167 -196 -207 -321 -42 -130 -28 -277 38
-407 26 -51 28 -51 129 43 138 128 213 278 215 430 2 120 -15 194 -70 300
l-21 39 -84 -84z"/>
<path d="M1800 3998 c-85 -30 -200 -95 -199 -113 0 -14 117 -113 168 -143 22
-13 71 -35 109 -47 57 -20 82 -23 172 -21 106 4 169 19 254 63 l38 19 -29 20
-28 19 69 5 c40 3 71 10 73 17 6 18 -113 108 -193 148 -148 71 -292 82 -434
33z"/>
<path d="M4289 4015 c-78 -16 -132 -39 -199 -85 -63 -42 -160 -146 -160 -170
0 -9 26 -30 58 -47 197 -108 396 -109 561 -3 84 54 201 171 201 201 0 20 -176
93 -251 104 -80 12 -153 12 -210 0z"/>
<path d="M936 3771 c-11 -17 -27 -150 -25 -201 9 -198 125 -366 321 -463 93
-46 195 -83 204 -74 21 20 21 213 0 301 -47 201 -213 361 -443 429 -29 9 -55
12 -57 8z"/>
<path d="M1616 3588 c-104 -222 -45 -425 172 -587 37 -28 72 -51 79 -51 12 0
47 84 63 153 27 117 -1 262 -69 357 -46 65 -180 180 -210 180 -6 0 -22 -24
-35 -52z"/>
<path d="M2498 3506 c-1 -2 -32 -6 -68 -10 -104 -9 -208 -58 -295 -137 l-36
-33 38 -24 c59 -37 121 -62 213 -89 187 -53 375 -9 517 121 l54 49 -70 33
c-89 42 -192 72 -267 80 -33 3 -64 7 -71 9 -6 2 -13 2 -15 1z"/>
<path d="M4010 3499 c-65 -13 -177 -71 -238 -124 -65 -58 -147 -164 -136 -175
16 -15 112 -60 161 -76 110 -33 260 -12 371 53 58 34 153 123 207 193 l44 57
-60 27 c-115 51 -237 67 -349 45z"/>
<path d="M6038 3375 c-2 -1 -32 -5 -68 -9 -36 -3 -90 -13 -120 -22 -56 -16
-199 -83 -234 -110 -20 -14 -20 -14 0 -42 40 -53 172 -158 247 -195 96 -47
190 -69 292 -69 128 1 279 44 389 112 34 20 67 39 75 41 10 4 -2 21 -40 58
-126 123 -304 211 -454 227 -27 3 -58 6 -67 8 -9 2 -18 3 -20 1z"/>
<path d="M475 3303 c-149 -9 -329 -72 -433 -151 l-23 -18 63 -60 c87 -83 133
-117 219 -163 121 -65 204 -85 344 -85 171 1 278 34 463 141 l43 26 -33 34
c-90 94 -271 202 -403 242 -77 23 -177 37 -240 34z"/>
<path d="M5190 3003 c-39 -7 -137 -33 -166 -43 l-26 -10 28 -48 c63 -109 182
-238 252 -273 15 -7 34 -18 42 -24 54 -41 206 -77 319 -76 100 1 266 35 294
60 9 9 -53 103 -108 162 -155 167 -320 249 -510 254 -55 1 -111 0 -125 -2z"/>
<path d="M4464 2839 c-83 -8 -134 -18 -134 -27 0 -23 27 -98 58 -162 76 -155
223 -255 417 -285 48 -7 196 -7 239 0 17 3 44 7 60 10 16 2 30 6 32 8 2 2 -3
24 -11 48 -50 145 -156 272 -285 341 -39 21 -70 36 -70 33 0 -3 -8 -1 -18 4
-44 23 -191 38 -288 30z"/>
<path d="M1179 2815 c-2 -2 -17 -5 -34 -8 -165 -26 -314 -118 -410 -252 -59
-83 -88 -142 -74 -151 35 -21 218 -51 292 -48 213 10 383 101 501 268 44 61
86 137 86 154 0 5 -19 13 -42 17 -24 4 -50 10 -58 12 -19 5 -257 13 -261 8z"/>
<path d="M1965 2653 c-167 -18 -338 -93 -431 -190 -88 -92 -150 -232 -156
-353 l-3 -65 50 3 c287 15 486 167 554 422 24 91 35 176 24 182 -4 2 -21 2
-38 1z"/>
<path d="M2422 2510 c-154 -37 -293 -131 -361 -244 -37 -62 -68 -161 -77 -243
l-5 -53 35 0 c136 0 307 69 396 160 51 52 115 160 125 210 2 11 6 24 9 28 4 7
11 48 20 125 l5 37 -37 -1 c-20 -1 -70 -9 -110 -19z"/>
</g>
</svg>
